<svg viewBox="0 0 58 59" fill="none" xmlns="http://www.w3.org/2000/svg">
<path fill-rule="evenodd" clip-rule="evenodd" d="M58 29.5001C58 13.2519 44.9726 0 28.9999 0C13.0274 0 0 13.2519 0 29.5001C0 45.7481 13.0274 59 28.9999 59C44.9726 59 58 45.7482 58 29.5001Z" fill="#D95647"/>
<path fill-rule="evenodd" clip-rule="evenodd" d="M24.9845 14.9612C24.9888 14.9612 24.9888 14.9612 24.9933 14.9612C26.224 14.9612 27.2515 15.6834 27.5999 16.675C27.9704 16.4552 28.3807 16.3295 28.8217 16.3295C29.2626 16.3295 29.6774 16.4596 30.0478 16.6795C30.3962 15.6878 31.424 14.9612 32.6588 14.9612C32.6588 14.9612 32.6632 14.9612 32.6677 14.9612H34.6569C34.6877 14.9612 34.7185 14.9568 34.7496 14.9568C34.1145 12.4307 31.7327 10.5508 28.8791 10.5508C26.0209 10.5508 23.6348 12.4353 23.0085 14.9613H24.9845V14.9612Z" fill="white"/>
<path fill-rule="evenodd" clip-rule="evenodd" d="M49.5913 32.6298L40.201 18.6268C40.0865 18.4518 39.9497 18.3038 39.8041 18.1691C40.0512 18.7748 40.1879 19.4388 40.1879 20.1387C40.1879 21.9917 39.2263 23.6204 37.7841 24.5402L40.7921 29.027L36.7386 27.6271C33.8939 26.815 30.5462 26.6895 30.5462 26.6895C31.4945 26.3351 32.3194 25.6979 32.9323 24.859C31.265 24.0693 30.083 22.3958 29.9728 20.435C29.9728 20.435 29.9154 18.9948 28.804 19.0038C27.8424 19.0129 27.6924 19.9774 27.6572 20.4217C27.6572 22.4721 26.5061 23.9572 24.8123 24.8052C25.4342 25.6757 26.2766 26.3353 27.2514 26.6941C27.2514 26.6941 23.6434 26.7928 20.9927 27.6273L16.9393 29.0271L19.9165 24.5853C18.439 23.6701 17.4466 22.0234 17.4466 20.139C17.4466 19.5064 17.5613 18.9052 17.7642 18.3443C17.6848 18.434 17.601 18.5238 17.5305 18.627L8.14017 32.6299C7.50066 33.5812 7.53147 34.8421 8.21952 35.7617C8.72677 36.4437 9.5074 36.8204 10.319 36.8204C10.6012 36.8204 10.8835 36.7756 11.1616 36.6813L19.9343 33.6529V46.256H37.7002V33.6214L46.5702 36.6813C46.848 36.7756 47.1304 36.8204 47.4126 36.8204C48.2241 36.8204 49.0047 36.4435 49.5119 35.7617C50.2 34.8417 50.231 33.581 49.5913 32.6298Z" fill="white"/>
<path fill-rule="evenodd" clip-rule="evenodd" d="M22.5631 24.2755C20.3182 24.2755 18.4966 22.4181 18.4966 20.1388C18.4966 17.8596 20.3182 16.002 22.5631 16.002C24.8037 16.002 26.6297 17.8594 26.6297 20.1388C26.6298 22.4181 24.8037 24.2755 22.5631 24.2755ZM22.5631 18.1377C21.4781 18.1377 20.5959 19.035 20.5959 20.1388C20.5959 21.2425 21.478 22.1398 22.5631 22.1398C23.6483 22.1398 24.5303 21.2425 24.5303 20.1388C24.5303 19.035 23.6481 18.1377 22.5631 18.1377Z" fill="white"/>
<path fill-rule="evenodd" clip-rule="evenodd" d="M35.0717 24.2755C32.8312 24.2755 31.0051 22.4181 31.0051 20.1388C31.0051 17.8596 32.8311 16.002 35.0717 16.002C37.3123 16.002 39.1384 17.8594 39.1384 20.1388C39.1384 22.4181 37.3124 24.2755 35.0717 24.2755ZM35.0717 18.1377C33.9867 18.1377 33.1044 19.035 33.1044 20.1388C33.1044 21.2425 33.9867 22.1398 35.0717 22.1398C36.1568 22.1398 37.0389 21.2425 37.0389 20.1388C37.0389 19.035 36.1568 18.1377 35.0717 18.1377Z" fill="white"/>
<path d="M23.4331 35.1122H25.1613V36.0965C25.7796 35.3317 26.5158 34.9493 27.3699 34.9493C27.8237 34.9493 28.2174 35.0444 28.551 35.2344C28.8846 35.4245 29.1582 35.7118 29.3717 36.0965C29.6831 35.7118 30.019 35.4245 30.3793 35.2344C30.7396 35.0444 31.1244 34.9493 31.5336 34.9493C32.0541 34.9493 32.4945 35.0579 32.8548 35.2751C33.2151 35.4878 33.4843 35.8023 33.6622 36.2186C33.7912 36.5263 33.8557 37.0241 33.8557 37.7119V42.3207H31.9807V38.2006C31.9807 37.4857 31.9162 37.0241 31.7872 36.8159C31.6137 36.5444 31.3468 36.4087 30.9865 36.4087C30.724 36.4087 30.4771 36.4901 30.2458 36.653C30.0145 36.8159 29.8477 37.0558 29.7454 37.3725C29.6431 37.6848 29.5919 38.1803 29.5919 38.859V42.3207H27.7169V38.3703C27.7169 37.6689 27.6835 37.2164 27.6168 37.0128C27.5501 36.8092 27.4456 36.6576 27.3032 36.558C27.1653 36.4585 26.9763 36.4087 26.736 36.4087C26.4469 36.4087 26.1867 36.4879 25.9553 36.6463C25.724 36.8046 25.5572 37.0332 25.4549 37.3318C25.357 37.6305 25.3081 38.126 25.3081 38.8183V42.3207H23.4331V35.1122Z" fill="#D95647"/>
</svg>
