<svg width="152" height="152" viewBox="0 0 152 152" fill="none" xmlns="http://www.w3.org/2000/svg">
<path fill-rule="evenodd" clip-rule="evenodd" d="M65.4768 38.5439C65.4882 38.5439 65.4882 38.5439 65.5001 38.5439C68.7251 38.5439 71.4181 40.4045 72.3311 42.9592C73.302 42.3928 74.3773 42.0691 75.5329 42.0691C76.6885 42.0691 77.7756 42.4043 78.7461 42.9706C79.6591 40.416 82.3529 38.5439 85.589 38.5439C85.589 38.5439 85.6004 38.5439 85.6122 38.5439H90.8252C90.9059 38.5439 90.9866 38.5325 91.0682 38.5325C89.4037 32.0248 83.1619 27.1817 75.6834 27.1817C68.193 27.1817 61.9398 32.0366 60.2985 38.5443H65.4768V38.5439Z" fill="#379183"/>
<path fill-rule="evenodd" clip-rule="evenodd" d="M129.964 84.0627L105.355 47.9875C105.054 47.5365 104.696 47.1552 104.314 46.8082C104.962 48.3687 105.32 50.0793 105.32 51.8825C105.32 56.6563 102.8 60.8523 99.0206 63.2219L106.904 74.781L96.2808 71.1746C88.8255 69.0824 80.0522 68.759 80.0522 68.759C82.5376 67.846 84.6992 66.2043 86.3054 64.0431C81.9361 62.0087 78.8383 57.6974 78.5496 52.6459C78.5496 52.6459 78.3991 48.9355 75.4864 48.9588C72.9664 48.982 72.5733 51.467 72.4811 52.6116C72.4811 57.8939 69.4644 61.72 65.0254 63.9045C66.6553 66.1472 68.863 67.8464 71.4177 68.7708C71.4177 68.7708 61.9622 69.0253 55.0154 71.175L44.3929 74.7814L52.1953 63.3381C48.3231 60.9803 45.7223 56.7379 45.7223 51.8833C45.7223 50.2535 46.0228 48.7047 46.5545 47.2596C46.3466 47.4908 46.1268 47.722 45.9421 47.9879L21.333 84.0631C19.6571 86.5138 19.7378 89.7621 21.541 92.1313C22.8703 93.8884 24.9161 94.8589 27.043 94.8589C27.7827 94.8589 28.5224 94.7435 29.2511 94.5004L52.2417 86.6985V119.167H98.8008V86.6174L122.046 94.5004C122.774 94.7435 123.514 94.8589 124.254 94.8589C126.38 94.8589 128.426 93.888 129.756 92.1313C131.559 89.7613 131.64 86.5134 129.964 84.0627Z" fill="#379183"/>
<path fill-rule="evenodd" clip-rule="evenodd" d="M59.1307 62.54C53.2473 62.54 48.4735 57.7548 48.4735 51.8829C48.4735 46.011 53.2473 41.2254 59.1307 41.2254C65.0026 41.2254 69.7878 46.0106 69.7878 51.8829C69.7882 57.7548 65.0026 62.54 59.1307 62.54ZM59.1307 46.7274C56.2873 46.7274 53.9752 49.0391 53.9752 51.8829C53.9752 54.7263 56.2869 57.038 59.1307 57.038C61.9745 57.038 64.2861 54.7263 64.2861 51.8829C64.2861 49.0391 61.9741 46.7274 59.1307 46.7274Z" fill="#379183"/>
<path fill-rule="evenodd" clip-rule="evenodd" d="M91.9115 62.54C86.04 62.54 81.2543 57.7548 81.2543 51.8829C81.2543 46.011 86.0396 41.2254 91.9115 41.2254C97.7834 41.2254 102.569 46.0106 102.569 51.8829C102.569 57.7548 97.7838 62.54 91.9115 62.54ZM91.9115 46.7274C89.0681 46.7274 86.756 49.0391 86.756 51.8829C86.756 54.7263 89.0681 57.038 91.9115 57.038C94.7553 57.038 97.0669 54.7263 97.0669 51.8829C97.0669 49.0391 94.7553 46.7274 91.9115 46.7274Z" fill="#379183"/>
<path d="M61.5243 90.817H66.0533V93.3526C67.6738 91.3824 69.6032 90.3974 71.8415 90.3974C73.0306 90.3974 74.0623 90.6422 74.9366 91.1318C75.811 91.6214 76.5279 92.3617 77.0875 93.3526C77.9036 92.3617 78.7837 91.6214 79.728 91.1318C80.6723 90.6422 81.6807 90.3974 82.7532 90.3974C84.1172 90.3974 85.2713 90.6771 86.2156 91.2367C87.1599 91.7846 87.8652 92.5949 88.3315 93.6674C88.6696 94.4601 88.8386 95.7425 88.8386 97.5145V109.388H83.9248V98.7735C83.9248 96.9316 83.7558 95.7425 83.4177 95.2062C82.9631 94.5067 82.2636 94.157 81.3193 94.157C80.6315 94.157 79.9845 94.3669 79.3783 94.7865C78.7721 95.2062 78.3349 95.8241 78.0668 96.6401C77.7986 97.4445 77.6646 98.7211 77.6646 100.47V109.388H72.7508V99.2107C72.7508 97.4037 72.6633 96.2379 72.4885 95.7133C72.3136 95.1887 72.0397 94.7982 71.6666 94.5417C71.3052 94.2852 70.8097 94.157 70.1802 94.157C69.4225 94.157 68.7405 94.361 68.1343 94.769C67.5281 95.1771 67.0909 95.7658 66.8228 96.5352C66.5663 97.3046 66.4381 98.5812 66.4381 100.365V109.388H61.5243V90.817Z" fill="black"/>
</svg>
